<svg width="121" height="121" viewBox="0 0 121 121" fill="none" xmlns="http://www.w3.org/2000/svg">
<mask id="mask0_2001_130" style="mask-type:luminance" maskUnits="userSpaceOnUse" x="0" y="0" width="121" height="121">
<path d="M26.4 75.4C25.5 75.4 24.7 76.1 24.7 77.1V79.9C24.7 80.8 25.4 81.6 26.4 81.6H35.6C36.5 81.6 37.3 80.9 37.3 79.9V77.1C37.3 76.2 36.6 75.4 35.6 75.4H26.4ZM85.5 75.4C84.6 75.4 83.8 76.1 83.8 77.1V79.9C83.8 80.8 84.5 81.6 85.5 81.6H94.7C95.6 81.6 96.4 80.9 96.4 79.9V77.1C96.4 76.2 95.7 75.4 94.7 75.4H85.5ZM60.5 32.6C54.5 32.4 42.4 33.6 39.7 34C38.8 34.2 38.2 34.4 38 35.9C37.8 37.5 37 47.9 37 47.9C37 47.9 54.3 45.7 60.4 45.7C66.4 45.7 83.8 47.9 83.8 47.9C83.8 47.9 83.1 37.4 82.8 35.9C82.6 34.4 82.1 34.2 81.1 34C78.7 33.7 68 32.6 61.7 32.6C61.4 32.6 60.9 32.6 60.5 32.6ZM98.9 88.2C100.4 88.2 101.1 89.5 101.1 90.5C101.1 92.5 101.1 93.5 101.1 95.5C101.1 95.5 101 99.7 101.1 101.8C101.1 103 100.1 103.9 98.9 104C98.3 104.1 78.2 104.1 60.5 104.2C42.9 104.2 22.7 104.1 22.1 104C20.9 103.9 19.9 103 19.9 101.8C19.9 99.7 19.9 95.5 19.9 95.5C19.9 93.5 19.9 92.5 19.9 90.5C19.9 89.5 20.6 88.2 22.1 88.2C23.6 88.2 33.7 88.3 38.3 88.2C40.2 88.2 41.2 89.1 41.2 91.5C41.2 92.1 41.7 92.5 42.3 92.5C42.7 92.5 51.5 92.5 60.4 92.5C69.3 92.5 78.1 92.5 78.5 92.5C79.1 92.5 79.6 92.2 79.6 91.5C79.6 89.1 80.6 88.2 82.5 88.2C83.5 88.2 84.8 88.2 86.2 88.2C91.3 88.3 97.7 88.2 98.9 88.2ZM44.3 87.2V82C44.3 81 45.1 80.2 46.1 80.2C47.1 80.2 47.9 81 47.9 82V87.2C47.9 88.2 47.1 89 46.1 89C45.1 88.9 44.3 88.1 44.3 87.2ZM51.5 87.2V78.6C51.5 77.6 52.3 76.8 53.3 76.8C54.3 76.8 55.1 77.6 55.1 78.6V87.2C55.1 88.2 54.3 89 53.3 89C52.3 88.9 51.5 88.1 51.5 87.2ZM58.7 87.2V73.2C58.7 72.2 59.5 71.4 60.5 71.4C61.5 71.4 62.3 72.2 62.3 73.2V87.2C62.3 88.2 61.5 89 60.5 89C59.5 88.9 58.7 88.1 58.7 87.2ZM65.9 87.2V64.8C65.9 63.8 66.7 63 67.7 63C68.7 63 69.5 63.8 69.5 64.8V87.2C69.5 88.2 68.7 89 67.7 89C66.7 88.9 65.9 88.1 65.9 87.2ZM73.1 87.2V59C73.1 58 73.9 57.2 74.9 57.2C75.9 57.2 76.7 58 76.7 59V87.2C76.7 88.2 75.9 89 74.9 89C73.9 88.9 73.1 88.1 73.1 87.2ZM86.1 29.1V27.7C86.1 21.9 86.1 23.9 86.1 18.1C86.1 17.6 86.3 17 86.6 16.6C87.9 15.2 91.8 11.9 91.8 11.9C91.8 11.9 91.8 15.4 91.8 16.1C91.8 16.9 91.8 17.8 90.9 18.4C90.3 18.8 90.1 19.3 90.1 20C90.1 26.6 90.1 25.6 90.1 32.2C90.1 33.5 90.1 34.8 90.1 36.1C90.1 37.1 90.9 37.4 91.6 37.4C92 37.4 93.2 37.4 94.1 37.4C94.7 37.4 95.2 37.4 95.3 37.4C96.4 37.4 96.9 37.9 96.9 38.9C96.9 42.7 96.9 46.1 96.9 49.9C96.9 51.1 96.5 51.5 95.3 51.6C94.2 51.6 93.9 51.6 93.6 51.7C91.8 52 90.7 53.4 90.7 55.2C90.6 58 90.6 59.6 90.6 62.4C90.6 62.7 90.6 64 91.1 64.3C91.7 64.7 92 64.7 92.5 64.8C94.3 65.1 95.7 66 97 67.2C98.9 69.1 99.3 71.6 99.5 74C99.7 77.2 99.6 79.9 99.6 83.1C99.6 84 99.3 85.1 98 85.1C96.7 85.1 83.8 85.4 82.1 85.4C80.4 85.4 80.2 84.5 80.3 82.9C80.3 80.8 81 59.9 81 57.4C81 55.7 79.7 54.5 78.3 54.2C76.3 53.7 62.7 51.4 60.5 51.4C58.3 51.4 44.7 53.7 42.7 54.1C41.3 54.4 40.1 55.6 40 57.3C40 59.7 40.6 80.7 40.7 82.8C40.7 84.3 40.6 85.2 38.9 85.3C37.2 85.3 24.3 85.3 23 85.3C21.7 85.3 21.4 84.2 21.4 83.3C21.4 80 21.3 77.4 21.5 74.2C21.6 71.7 22.1 69.3 24 67.4C25.3 66.1 26.7 65.3 28.5 65C29 64.9 29.3 64.9 29.9 64.5C30.4 64.1 30.4 62.9 30.4 62.6C30.4 59.8 30.4 58.2 30.3 55.4C30.2 53.6 29.2 52.2 27.4 51.9C27.1 51.9 26.8 51.8 25.7 51.8C24.4 51.7 24.1 51.3 24 50.1C24 46.3 24 42.9 24 39.1C24 38 24.5 37.6 25.6 37.6C25.7 37.6 26.2 37.6 26.8 37.6C27.7 37.6 28.8 37.6 29.3 37.6C30 37.6 30.8 37.3 30.8 36.3C30.8 35 30.8 33.7 30.8 32.4C30.8 25.8 30.8 26.8 30.8 20.2C30.8 19.5 30.6 18.9 30 18.6C29.1 18 29.1 17.1 29.1 16.3C29.1 15.5 29.1 12.1 29.1 12.1C29.1 12.1 33 15.4 34.3 16.8C34.6 17.2 34.8 17.8 34.8 18.3C34.8 24.1 34.8 22.1 34.8 27.9V29.3C34.9 29.3 35.3 28.6 35.6 28.1C36.5 26.9 38.2 25.4 39.4 25C40.2 24.7 50.3 24.7 60.4 24.8C70.5 24.7 80.5 24.7 81.4 25C82.7 25.4 84.4 26.9 85.2 28.1C85.6 28.4 86 29.1 86.1 29.1ZM25.2 0C11.3 0 0 11.3 0 25.2V95.7C0 109.6 11.3 120.9 25.2 120.9H95.7C109.6 120.9 120.9 109.6 120.9 95.7V25.2C120.9 11.3 109.6 0 95.7 0H25.2Z" fill="white"/>
</mask>
<g mask="url(#mask0_2001_130)">
<path d="M120.9 0H0V120.9H120.9V0Z" fill="url(#paint0_linear_2001_130)"/>
</g>
<defs>
<linearGradient id="paint0_linear_2001_130" x1="0.0369848" y1="60.4956" x2="120.96" y2="60.4956" gradientUnits="userSpaceOnUse">
<stop stop-color="#1D6960"/>
<stop offset="1" stop-color="#74AA50"/>
</linearGradient>
</defs>
</svg>
